<?xml version="1.0" encoding="utf-8"?>
<!-- Generator: Adobe Illustrator 27.5.0, SVG Export Plug-In . SVG Version: 6.00 Build 0)  -->
<svg version="1.1" xmlns="http://www.w3.org/2000/svg" xmlns:xlink="http://www.w3.org/1999/xlink" x="0px" y="0px"
	 viewBox="0 0 500 500" style="enable-background:new 0 0 500 500;" xml:space="preserve">
<g id="Background_Simple">
	<g>
		<path style="fill:#92E3A9;" d="M59.718,329.699c4.159,31.604,24.206,58.786,52.91,71.781
			c60.918,27.579,167.919,71.636,206.164,59.791c54.701-16.941,166.864-329.237,148.554-385.389
			C449.036,19.73,72.482,57.698,55.638,104.013C42.777,139.378,50.129,256.837,59.718,329.699z"/>
		<path style="opacity:0.7;fill:#FFFFFF;" d="M59.718,329.699c4.159,31.604,24.206,58.786,52.91,71.781
			c60.918,27.579,167.919,71.636,206.164,59.791c54.701-16.941,166.864-329.237,148.554-385.389
			C449.036,19.73,72.482,57.698,55.638,104.013C42.777,139.378,50.129,256.837,59.718,329.699z"/>
	</g>
</g>
<g id="Plant">
	<g>
		<g>
			<g>
				<path style="fill:#263238;" d="M419.335,326.249l0.002-0.004c0.014-0.035-0.003-0.076-0.038-0.091
					c-0.036-0.016-0.078,0.001-0.093,0.037c-2.145,4.955-3.654,10.156-4.913,15.402c-1.215,5.261-2.096,10.598-2.711,15.967
					l-0.384,4.036c-0.059,0.673-0.132,1.346-0.181,2.02l-0.11,2.025c-0.058,1.351-0.141,2.701-0.179,4.052l0.037,4.056l0.045,2.027
					c0.03,0.675,0.078,1.35,0.124,2.024c0.102,1.348,0.184,2.697,0.308,4.042c0.259,2.689,0.663,5.363,1.079,8.026
					c0.005,0.034,0.035,0.06,0.07,0.06c0.039,0,0.071-0.032,0.071-0.071v-0.004c-0.007-1.352-0.064-2.696-0.095-4.042
					c-0.039-1.344-0.156-2.682-0.137-4.027c0.006-1.344-0.029-2.685-0.044-4.026l-0.037-2.01l0.036-2.01l0.018-4.019l0.109-4.017
					l0.042-2.01c0.026-0.67,0.076-1.338,0.113-2.007l0.247-4.014c0.47-5.342,1.204-10.665,2.274-15.926
					C416.054,336.488,417.375,331.253,419.335,326.249z"/>
				<path style="fill:#263238;" d="M419.911,347.264c0.01-0.036-0.008-0.076-0.044-0.089c-0.037-0.013-0.078,0.007-0.09,0.044
					c-1.157,3.339-2.08,6.755-2.861,10.207c-0.746,3.458-1.332,6.961-1.689,10.49c-0.357,3.517-0.75,7.038-0.798,10.574
					c-0.054,3.534,0.002,7.073,0.376,10.604c0.004,0.033,0.03,0.06,0.063,0.063c0.039,0.004,0.074-0.024,0.079-0.063
					c0.408-3.521,0.658-7.033,0.901-10.544c0.249-3.509,0.283-7.029,0.512-10.54c0.212-3.5,0.651-6.986,1.254-10.449
					C418.203,354.099,418.939,350.648,419.911,347.264z"/>
				<path style="fill:#263238;" d="M431.562,354.657c-0.021-0.033-0.065-0.043-0.098-0.022c-2.916,1.846-5.517,4.172-7.79,6.792
					c-1.117,1.33-2.156,2.722-3.046,4.236l-0.626,1.181l-0.49,1.227c-0.176,0.407-0.3,0.826-0.427,1.244
					c-0.126,0.419-0.267,0.836-0.38,1.257c-0.875,3.377-1.454,6.818-1.612,10.277c-0.141,3.457-0.075,6.919,0.386,10.351
					c0.005,0.033,0.032,0.059,0.066,0.062c0.039,0.003,0.073-0.027,0.076-0.066l0.888-10.246c0.354-3.387,0.571-6.794,1.298-10.103
					c0.092-0.412,0.211-0.815,0.315-1.224c0.106-0.408,0.208-0.818,0.359-1.207l0.416-1.184l0.535-1.118
					c0.789-1.48,1.754-2.896,2.791-4.238c2.081-2.685,4.529-5.133,7.315-7.12l0.004-0.003
					C431.574,354.731,431.582,354.689,431.562,354.657z"/>
				<path style="fill:#263238;" d="M425.923,367.82c-1.588,1.025-2.65,2.637-3.543,4.259c-0.851,1.658-1.522,3.415-1.985,5.217
					c-0.139,0.446-0.249,0.899-0.347,1.353l-0.321,1.362c-0.164,0.915-0.292,1.84-0.344,2.767c-0.012,0.93-0.039,1.858,0.024,2.785
					c0.077,0.926,0.182,1.851,0.365,2.767c0.007,0.026,0.028,0.051,0.057,0.057c0.039,0.008,0.077-0.018,0.085-0.057
					c0.224-0.914,0.371-1.82,0.491-2.724c0.144-0.902,0.284-1.798,0.392-2.695c0.132-0.893,0.25-1.784,0.32-2.685
					c0.125-0.888,0.19-1.796,0.385-2.673c0.312-1.776,0.825-3.51,1.519-5.168c0.691-1.645,1.591-3.284,2.974-4.442l0.011-0.009
					c0.027-0.022,0.034-0.062,0.014-0.092C426,367.809,425.956,367.799,425.923,367.82z"/>
				<path style="fill:#263238;" d="M409.584,378.084c-0.383-4.549-1.133-9.052-1.842-13.553c-0.711-4.501-1.495-8.989-2.319-13.469
					c-0.853-4.474-1.744-8.94-2.709-13.39c-0.008-0.037-0.044-0.062-0.082-0.055c-0.039,0.007-0.064,0.044-0.057,0.083
					c0.778,4.484,1.483,8.98,2.148,13.481c0.683,4.497,1.325,9,1.894,13.511c0.556,4.513,0.989,9.036,1.555,13.541l1.664,13.54
					c0.004,0.034,0.032,0.061,0.068,0.063c0.039,0.002,0.072-0.028,0.074-0.068c0.052-1.141,0.053-2.282,0.081-3.426
					c0.01-1.143-0.046-2.281-0.067-3.424C409.95,382.633,409.755,380.36,409.584,378.084z"/>
				<path style="fill:#263238;" d="M406.856,378.018c-0.243-1.802-0.574-3.593-0.918-5.378l-0.639-2.656
					c-0.209-0.885-0.407-1.773-0.667-2.647c-0.908-3.524-2.067-6.987-3.477-10.344l-0.545-1.252l-0.606-1.225
					c-0.385-0.825-0.852-1.61-1.294-2.405c-0.951-1.549-1.938-3.097-3.283-4.353c-0.027-0.025-0.07-0.025-0.098,0.001
					c-0.028,0.027-0.029,0.072-0.002,0.1l0.007,0.007c1.243,1.289,2.149,2.88,3.003,4.452c0.396,0.809,0.814,1.604,1.152,2.439
					l0.534,1.238l0.474,1.264c1.26,3.367,2.271,6.828,3.031,10.347c0.414,1.75,0.689,3.534,1.028,5.298l0.426,2.666
					c0.154,0.886,0.344,1.767,0.469,2.659c0.284,1.778,0.611,3.552,0.921,5.332c0.276,1.784,0.602,3.565,0.978,5.348
					c0.007,0.032,0.036,0.059,0.07,0.059c0.039,0,0.071-0.031,0.072-0.071c0.008-1.817-0.034-3.636-0.127-5.451
					C407.26,381.632,407.045,379.827,406.856,378.018z"/>
				<path style="fill:#263238;" d="M403.092,378.25c-0.843-2.387-1.818-4.723-2.88-7.013c-1.09-2.278-2.268-4.513-3.623-6.641
					c-0.021-0.03-0.064-0.042-0.096-0.023c-0.034,0.02-0.045,0.063-0.025,0.097c1.184,2.211,2.185,4.517,3.092,6.849
					c0.924,2.326,1.755,4.687,2.453,7.085c0.711,2.396,1.221,4.838,1.858,7.244c0.67,2.404,1.212,4.834,1.952,7.269
					c0.009,0.029,0.036,0.052,0.068,0.053c0.039,0,0.072-0.031,0.073-0.071c0.036-2.541-0.214-5.08-0.708-7.567
					C404.81,383.03,403.93,380.635,403.092,378.25z"/>
				<path style="fill:#263238;" d="M402.936,386.2c-0.431-1.494-1.167-2.887-2.002-4.199c-0.821-1.319-1.773-2.565-2.914-3.621
					c-0.588-0.509-1.189-1-1.854-1.398c-0.655-0.409-1.349-0.755-2.103-0.951c-0.033-0.009-0.068,0.008-0.082,0.04
					c-0.016,0.036,0,0.078,0.036,0.093l0.008,0.004c1.363,0.606,2.514,1.61,3.488,2.71c0.986,1.101,1.774,2.364,2.43,3.679
					c0.69,1.307,1.047,2.751,1.647,4.096c0.265,0.69,0.528,1.384,0.834,2.074c0.26,0.703,0.548,1.404,0.914,2.102l0.002,0.004
					c0.012,0.022,0.035,0.038,0.061,0.039c0.04,0.002,0.074-0.029,0.076-0.07c0.033-0.778-0.013-1.553-0.087-2.325
					C403.28,387.712,403.119,386.954,402.936,386.2z"/>
			</g>
			<path style="fill:#92E3A9;" d="M403.217,344.184c0,0-7.453-1.72-9.173-9.747c-1.72-8.027,3.822-4.587-1.147-17.2
				c-4.969-12.613-3.822-15.48-2.102-19.111c1.72-3.631,2.676-2.484,4.204,2.293c1.529,4.778,7.071,12.231,9.173,26.182
				C406.275,340.553,403.217,344.184,403.217,344.184z"/>
			<path style="fill:#92E3A9;" d="M417.933,330.615c0,0-4.969-1.72-5.16-11.085c-0.191-9.364,3.631-7.453,4.204-19.111
				s1.338-19.876,3.44-20.067c2.102-0.191,7.645,5.733,9.556,18.729c1.911,12.996-2.484,21.595-6.307,25.418
				C419.844,328.322,417.933,330.615,417.933,330.615z"/>
			<path style="fill:#92E3A9;" d="M400.542,355.459c0,0-1.147-6.88-3.44-10.129c-2.293-3.249-7.262-6.116-10.511-12.422
				c-3.249-6.307-6.88-9.364-6.689-0.382c0.191,8.982,4.204,13.569,9.173,16.627C394.044,352.211,400.542,355.459,400.542,355.459z"
				/>
			<path style="fill:#92E3A9;" d="M398.44,367.308c0,0-4.587-8.791-11.275-15.289c-6.689-6.498-12.04-9.747-10.129-6.498
				c1.911,3.249,4.205,3.058,7.453,8.791c3.249,5.733,2.293,9.938,6.88,13.187S398.44,367.308,398.44,367.308z"/>
			<path style="fill:#92E3A9;" d="M397.866,378.584c-0.191-0.573-0.382-4.778-6.88-8.218c-6.498-3.44-12.613-2.102-11.849-0.382
				c0.764,1.72,4.778,4.587,8.791,6.307C391.942,378.01,397.866,378.584,397.866,378.584z"/>
			<path style="fill:#92E3A9;" d="M417.551,355.842c0,0-2.867-3.631-1.338-11.275c1.529-7.645,4.969-5.733,8.791-9.747
				c3.822-4.013,3.058-4.587,6.88-8.791c3.822-4.204,7.262-6.498,8.791-4.778c1.529,1.72-0.764,7.071-3.058,10.129
				c-2.293,3.058-5.924,4.587-7.644,8.409c-1.72,3.822-0.956,9.938-5.351,12.804C420.226,355.459,417.551,355.842,417.551,355.842z"
				/>
			<path style="fill:#92E3A9;" d="M427.106,357.944c0,0,6.88-7.836,11.849-13.569c4.969-5.733,6.88-10.129,7.071-6.307
				c0.191,3.822,1.72,6.88-2.293,11.849C439.72,354.886,427.106,357.944,427.106,357.944z"/>
			<path style="fill:#92E3A9;" d="M423.475,370.557c0,0-0.191-3.058,10.702-10.129c10.893-7.071,15.48-8.409,14.333-5.542
				c-1.147,2.867-5.924,5.733-11.084,10.893C432.266,370.94,423.475,370.557,423.475,370.557z"/>
			<path style="fill:none;stroke:#263238;stroke-linecap:round;stroke-linejoin:round;stroke-miterlimit:10;" d="M403.672,343.37
				c0,0-2.557-13.71-5.232-23.457c-2.676-9.747-4.396-15.671-4.396-15.671"/>
			<path style="fill:none;stroke:#263238;stroke-linecap:round;stroke-linejoin:round;stroke-miterlimit:10;" d="M417.493,330.759
				c0,0,4.645-14.86,6.174-23.842c1.529-8.982-0.191-15.671-0.956-19.685"/>
			<path style="fill:none;stroke:#263238;stroke-linecap:round;stroke-linejoin:round;stroke-miterlimit:10;" d="M399.939,355.172
				c0,0-2.837-5.064-7.042-10.033c-4.204-4.969-7.453-7.644-9.364-12.422"/>
			<path style="fill:none;stroke:#263238;stroke-linecap:round;stroke-linejoin:round;stroke-miterlimit:10;" d="M417.551,355.842
				c0,0,1.529-9.173,5.16-13.951c3.631-4.778,10.893-12.231,13.76-17.009"/>
			<path style="fill:none;stroke:#263238;stroke-linecap:round;stroke-linejoin:round;stroke-miterlimit:10;" d="M397.417,378.375
				c0,0-6.431-4.187-11.018-6.48"/>
		</g>
		<g>
			<g>
				<path style="fill:#263238;stroke:#263238;stroke-linecap:round;stroke-linejoin:round;stroke-miterlimit:10;" d="
					M434.239,416.896c-0.43-11.597-13.315-19.328-13.315-19.328h-8.152h-3.445h-8.152c0,0-12.885,7.731-13.315,19.328
					c-0.43,11.597,14.603,54.119,14.603,54.119h6.863h3.445h6.863C419.636,471.015,434.669,428.493,434.239,416.896z"/>
				<polygon style="fill:#263238;stroke:#263238;stroke-linecap:round;stroke-linejoin:round;stroke-miterlimit:10;" points="
					423.467,386.165 398.268,386.165 401.175,397.568 420.559,397.568 				"/>
			</g>
		</g>
	</g>
</g>
<g id="Gears">
	<g style="opacity:0.3;">
		<path style="fill:none;stroke:#000000;stroke-miterlimit:10;" d="M333.058,423.795l15.406,1.766l3.46-15.161l-14.187-4.933
			c-0.142-3.764-0.909-7.365-2.201-10.708l10.557-10.517l-9.696-12.158l-12.322,7.775c-3.037-2.212-6.463-3.92-10.157-5.005
			l-1.608-14.52H296.76l-1.608,14.52c-3.643,1.071-7.024,2.747-10.03,4.915l-12.567-7.93l-9.696,12.158l10.711,10.67
			c-1.263,3.238-2.042,6.718-2.226,10.356l-14.581,5.071l3.46,15.161l15.6-1.788c1.699,2.909,3.822,5.54,6.293,7.8l-5.29,15.026
			l14.011,6.747l8.439-13.489c1.713,0.272,3.469,0.418,5.258,0.418c1.573,0,3.118-0.117,4.634-0.329l8.468,13.535l14.011-6.747
			l-5.186-14.73C329.047,429.426,331.279,426.763,333.058,423.795z M283.472,406.736c0-11.633,9.431-21.063,21.064-21.063
			s21.063,9.43,21.063,21.063s-9.43,21.064-21.063,21.064S283.472,418.368,283.472,406.736z"/>
		<path style="fill:none;stroke:#000000;stroke-miterlimit:10;" d="M243.022,398.907l10.734,1.23l2.411-10.563l-9.885-3.437
			c-0.099-2.622-0.633-5.132-1.534-7.461l7.356-7.327l-6.756-8.471l-8.585,5.418c-2.116-1.541-4.503-2.731-7.077-3.487l-1.12-10.117
			h-10.835l-1.12,10.117c-2.538,0.746-4.894,1.914-6.988,3.424l-8.756-5.525l-6.756,8.471l7.463,7.434
			c-0.88,2.256-1.423,4.681-1.551,7.216l-10.16,3.533l2.411,10.563l10.87-1.246c1.184,2.027,2.663,3.86,4.384,5.435l-3.686,10.469
			l9.762,4.701l5.88-9.398c1.194,0.19,2.417,0.291,3.664,0.291c1.096,0,2.173-0.082,3.228-0.229l5.9,9.431l9.762-4.701
			l-3.613-10.263C240.228,402.831,241.783,400.975,243.022,398.907z M208.474,387.021c0-8.105,6.571-14.676,14.676-14.676
			c8.105,0,14.676,6.571,14.676,14.676c0,8.105-6.571,14.676-14.676,14.676C215.044,401.697,208.474,395.126,208.474,387.021z"/>
	</g>
</g>
<g id="Money">
	<g style="opacity:0.3;">
		
			<ellipse transform="matrix(0.7071 -0.7071 0.7071 0.7071 -140.1004 281.2778)" style="fill:none;stroke:#000000;stroke-linecap:round;stroke-linejoin:round;stroke-miterlimit:10;" cx="269.482" cy="309.755" rx="28.8" ry="28.8"/>
		<g>
			<path style="fill:none;stroke:#000000;stroke-linecap:round;stroke-linejoin:round;stroke-miterlimit:10;" d="M269.815,330.316
				v-3.848c-2.841-0.111-4.966-1.021-6.372-2.731c-1.407-1.71-2.166-4.262-2.276-7.656l5.835-0.992
				c0.055,1.379,0.2,2.531,0.434,3.455c0.235,0.924,0.586,1.613,1.056,2.068c0.468,0.456,1.076,0.683,1.82,0.683
				c0.855,0,1.441-0.275,1.759-0.828c0.316-0.551,0.475-1.185,0.475-1.903c0-1.407-0.324-2.586-0.972-3.538
				c-0.649-0.953-1.539-1.91-2.669-2.876l-3.517-3.021c-0.801-0.746-1.517-1.503-2.152-2.276c-0.635-0.772-1.138-1.655-1.51-2.648
				c-0.372-0.993-0.559-2.165-0.559-3.517c0-2.592,0.737-4.614,2.214-6.062c1.475-1.448,3.455-2.269,5.938-2.462v-3.683h1.987v3.683
				c1.49,0.083,2.711,0.421,3.662,1.014c0.952,0.594,1.676,1.338,2.172,2.234c0.497,0.896,0.855,1.876,1.076,2.938
				c0.22,1.062,0.358,2.09,0.414,3.083l-5.918,0.869c-0.028-1.021-0.11-1.924-0.248-2.711c-0.139-0.786-0.387-1.399-0.745-1.842
				c-0.359-0.441-0.911-0.648-1.655-0.62c-0.773,0.028-1.359,0.33-1.759,0.911c-0.4,0.579-0.6,1.227-0.6,1.945
				c0,1.269,0.303,2.289,0.911,3.061c0.606,0.773,1.296,1.517,2.068,2.234l3.435,2.98c0.911,0.827,1.752,1.723,2.524,2.689
				c0.772,0.966,1.393,2.035,1.862,3.207c0.469,1.173,0.704,2.517,0.704,4.034c0,1.462-0.297,2.793-0.89,3.993
				c-0.594,1.2-1.448,2.172-2.565,2.918c-1.118,0.745-2.435,1.186-3.952,1.324v3.89H269.815z"/>
		</g>
	</g>
	<g style="opacity:0.3;">
		
			<ellipse transform="matrix(0.9728 -0.2316 0.2316 0.9728 -47.7297 98.2493)" style="fill:none;stroke:#000000;stroke-linecap:round;stroke-linejoin:round;stroke-miterlimit:10;" cx="394.589" cy="252.41" rx="18.633" ry="18.633"/>
		<g>
			<path style="fill:none;stroke:#000000;stroke-linecap:round;stroke-linejoin:round;stroke-miterlimit:10;" d="M394.805,265.712
				v-2.489c-1.838-0.072-3.213-0.66-4.122-1.767c-0.91-1.106-1.401-2.757-1.473-4.953l3.775-0.642
				c0.036,0.892,0.129,1.638,0.281,2.235c0.152,0.598,0.379,1.044,0.683,1.338c0.303,0.295,0.696,0.442,1.178,0.442
				c0.553,0,0.932-0.178,1.138-0.536c0.204-0.356,0.307-0.767,0.307-1.231c0-0.911-0.21-1.673-0.629-2.289
				c-0.42-0.616-0.996-1.236-1.727-1.861l-2.276-1.954c-0.518-0.482-0.982-0.973-1.392-1.473c-0.411-0.499-0.736-1.071-0.977-1.713
				c-0.241-0.643-0.362-1.401-0.362-2.276c0-1.677,0.477-2.985,1.432-3.922c0.954-0.937,2.235-1.468,3.841-1.593v-2.383h1.285v2.383
				c0.964,0.053,1.754,0.272,2.369,0.656c0.616,0.384,1.084,0.866,1.405,1.446c0.321,0.58,0.553,1.214,0.696,1.901
				c0.142,0.687,0.232,1.352,0.268,1.995l-3.829,0.562c-0.018-0.66-0.071-1.245-0.16-1.754c-0.09-0.509-0.25-0.905-0.482-1.191
				c-0.232-0.285-0.589-0.419-1.071-0.401c-0.5,0.018-0.879,0.214-1.138,0.589c-0.259,0.375-0.388,0.794-0.388,1.258
				c0,0.821,0.196,1.481,0.589,1.981c0.392,0.5,0.839,0.982,1.338,1.446l2.222,1.928c0.589,0.535,1.134,1.115,1.633,1.74
				c0.499,0.625,0.901,1.316,1.205,2.075c0.303,0.759,0.455,1.628,0.455,2.61c0,0.946-0.192,1.807-0.576,2.583
				c-0.384,0.777-0.937,1.405-1.659,1.888c-0.723,0.482-1.576,0.767-2.557,0.856v2.517H394.805z"/>
		</g>
	</g>
</g>
<g id="Chart_2">
	<g style="opacity:0.3;">
		<path style="fill:none;stroke:#000000;stroke-miterlimit:10;" d="M448.363,88.841h-22.554V67.013
			c-12.463,0-22.569,10.105-22.569,22.569s10.105,22.569,22.569,22.569c12.463,0,22.568-10.106,22.568-22.569
			C448.378,89.337,448.371,89.086,448.363,88.841z"/>
		<path style="fill:none;stroke:#000000;stroke-miterlimit:10;" d="M450.583,86.622h-22.554V64.793
			C440.248,64.793,450.195,74.504,450.583,86.622z"/>
	</g>
</g>
<g id="Chart_1">
	<g style="opacity:0.3;">
		
			<rect x="101.662" y="76.852" style="fill:none;stroke:#000000;stroke-linecap:round;stroke-linejoin:round;stroke-miterlimit:10;" width="16.628" height="51.332"/>
		
			<rect x="124.075" y="94.927" style="fill:none;stroke:#000000;stroke-linecap:round;stroke-linejoin:round;stroke-miterlimit:10;" width="16.628" height="33.257"/>
		
			<rect x="146.487" y="106.856" style="fill:none;stroke:#000000;stroke-linecap:round;stroke-linejoin:round;stroke-miterlimit:10;" width="16.628" height="21.328"/>
		<path style="fill:none;stroke:#000000;stroke-miterlimit:10;" d="M160.216,103.48l-3.035-15.053l-3.135,2.764l-16.712-18.955
			c-0.454-0.515-1.048-0.885-1.711-1.064l-30.996-8.395l-1.83,6.757l29.981,8.12l16.017,18.166l-3.135,2.764L160.216,103.48z"/>
	</g>
</g>
<g id="Indicator">
	<g>
		<path style="fill:#263238;" d="M341.815,123.025h-75.468c-5.513,0-9.983-4.469-9.983-9.982V39.02c0-5.513,4.469-9.983,9.983-9.983
			h75.468c5.513,0,9.983,4.469,9.983,9.983v74.022C351.798,118.555,347.328,123.025,341.815,123.025z"/>
		<g>
			<path style="fill:#92E3A9;stroke:#263238;stroke-linejoin:round;stroke-miterlimit:10;" d="M440.856,219.649h-273.55
				c0.38-75.22,61.47-136.08,136.78-136.08C379.386,83.569,440.476,144.429,440.856,219.649z"/>
			<path style="fill:#FFFFFF;stroke:#263238;stroke-linejoin:round;stroke-miterlimit:10;" d="M434.046,219.649h-259.93
				c0.23-43.49,21.82-81.92,54.81-105.34c21.22-15.07,47.16-23.93,75.16-23.93s53.94,8.86,75.16,23.92
				C412.226,137.729,433.816,176.159,434.046,219.649z"/>
			<path style="fill:#FFFFFF;stroke:#263238;stroke-linejoin:round;stroke-miterlimit:10;" d="M379.246,114.299l-74.66,105.35
				l-0.5,0.7l-0.5-0.7l-74.66-105.34c21.22-15.07,47.16-23.93,75.16-23.93S358.026,99.239,379.246,114.299z"/>
			<path style="fill:#FFFFFF;stroke:#263238;stroke-linejoin:round;stroke-miterlimit:10;" d="M355.306,219.649h-102.45
				c0.37-27.98,23.16-50.54,51.23-50.54C332.146,169.109,354.936,191.669,355.306,219.649z"/>
		</g>
		<g>
			<g>
				<path style="fill:#263238;" d="M342.943,253.35L342.943,253.35c-2.176,2.526-5.993,2.797-8.504,0.603l-104.165-92.359
					l5.221-6.062l106.783,89.318C344.821,247.009,345.119,250.824,342.943,253.35z"/>
			</g>
			<g>
				
					<circle style="fill:#FFFFFF;stroke:#263238;stroke-linejoin:round;stroke-miterlimit:10;" cx="304.081" cy="220.348" r="29.068"/>
				
					<circle style="fill:#263238;stroke:#263238;stroke-linejoin:round;stroke-miterlimit:10;" cx="304.081" cy="220.348" r="15.851"/>
			</g>
		</g>
	</g>
</g>
<g id="Text">
	<g style="opacity:0.28;">
		<path d="M201.039,190.655v-18.654h3.409v16.305h4.514v2.349H201.039z"/>
		<path d="M215.571,190.908c-1.32,0-2.372-0.246-3.155-0.737c-0.783-0.491-1.344-1.198-1.681-2.119
			c-0.338-0.921-0.507-2.011-0.507-3.27v-6.978c0-1.259,0.169-2.337,0.507-3.236c0.337-0.898,0.898-1.585,1.681-2.061
			c0.783-0.476,1.835-0.714,3.155-0.714c1.351,0,2.415,0.238,3.19,0.714c0.775,0.476,1.335,1.163,1.681,2.061
			c0.345,0.898,0.518,1.977,0.518,3.236v7.001c0,1.244-0.173,2.322-0.518,3.236c-0.346,0.913-0.906,1.62-1.681,2.119
			C217.985,190.658,216.922,190.908,215.571,190.908z M215.571,188.398c0.568,0,0.986-0.123,1.255-0.369
			c0.268-0.245,0.449-0.583,0.541-1.013c0.092-0.43,0.138-0.898,0.138-1.405v-8.59c0-0.521-0.046-0.99-0.138-1.405
			c-0.092-0.414-0.273-0.74-0.541-0.979c-0.269-0.238-0.688-0.357-1.255-0.357c-0.538,0-0.944,0.119-1.22,0.357
			c-0.276,0.238-0.461,0.564-0.553,0.979c-0.092,0.415-0.138,0.883-0.138,1.405v8.59c0,0.506,0.042,0.975,0.127,1.405
			c0.084,0.43,0.265,0.768,0.541,1.013C214.604,188.276,215.018,188.398,215.571,188.398z"/>
		<path d="M225.427,190.655l-2.648-18.654h2.856l1.543,12.091l1.935-12.044h2.326l1.98,12.044l1.52-12.091h2.81l-2.602,18.654
			h-2.764l-2.073-12.505l-2.05,12.505H225.427z"/>
	</g>
	<g style="opacity:0.28;">
		<path d="M367.006,190.655v-18.654h3.386v7.807h3.8v-7.807h3.408v18.654h-3.408v-8.429h-3.8v8.429H367.006z"/>
		<path d="M380.548,190.655v-18.654h3.362v18.654H380.548z"/>
		<path d="M391.464,190.908c-1.228,0-2.203-0.261-2.925-0.783c-0.722-0.521-1.24-1.263-1.555-2.222
			c-0.314-0.96-0.472-2.092-0.472-3.397v-6.264c0-1.336,0.153-2.487,0.46-3.455c0.308-0.967,0.849-1.707,1.624-2.222
			c0.775-0.514,1.846-0.771,3.213-0.771c1.274,0,2.287,0.215,3.04,0.645c0.752,0.43,1.293,1.048,1.623,1.854
			c0.33,0.806,0.495,1.785,0.495,2.937v0.967h-3.247v-1.059c0-0.599-0.042-1.113-0.127-1.543c-0.084-0.43-0.253-0.756-0.506-0.979
			c-0.254-0.223-0.665-0.334-1.232-0.334c-0.599,0-1.033,0.146-1.301,0.438c-0.27,0.291-0.438,0.676-0.507,1.151
			c-0.069,0.476-0.104,0.998-0.104,1.566v7.807c0,0.645,0.053,1.206,0.161,1.681c0.106,0.476,0.307,0.841,0.599,1.094
			c0.291,0.253,0.706,0.38,1.243,0.38c0.553,0,0.975-0.138,1.267-0.415c0.292-0.276,0.495-0.66,0.61-1.151
			c0.115-0.491,0.173-1.075,0.173-1.751v-1.751h-2.004v-2.142h5.067v9.465h-2.189l-0.253-1.842
			c-0.246,0.614-0.618,1.117-1.117,1.508C393.003,190.713,392.323,190.908,391.464,190.908z"/>
		<path d="M399.708,190.655v-18.654h3.386v7.807h3.8v-7.807h3.408v18.654h-3.408v-8.429h-3.8v8.429H399.708z"/>
	</g>
	<g>
		<path style="fill:#92E3A9;" d="M273.48,69.762V40.481h7.012c1.977,0,3.647,0.235,5.008,0.705c1.361,0.47,2.396,1.271,3.109,2.404
			c0.709,1.133,1.066,2.675,1.066,4.627c0,1.181-0.109,2.241-0.326,3.181c-0.217,0.94-0.584,1.741-1.103,2.404
			c-0.518,0.663-1.234,1.175-2.15,1.537l4.086,14.423h-5.352l-3.541-13.411h-2.459v13.411H273.48z M278.83,52.989h1.662
			c1.037,0,1.863-0.15,2.477-0.452c0.615-0.301,1.055-0.783,1.32-1.446c0.264-0.663,0.396-1.512,0.396-2.549
			c0-1.47-0.27-2.572-0.813-3.308c-0.543-0.735-1.572-1.103-3.092-1.103h-1.951V52.989z"/>
		<path style="fill:#92E3A9;" d="M293.832,69.762V40.481h5.278v29.281H293.832z"/>
		<path style="fill:#92E3A9;" d="M311.002,70.16c-1.759,0-3.23-0.343-4.41-1.03c-1.181-0.687-2.072-1.692-2.675-3.019
			c-0.603-1.325-0.94-2.951-1.012-4.88l4.591-0.903c0.048,1.133,0.186,2.133,0.416,3c0.229,0.867,0.578,1.536,1.048,2.006
			c0.47,0.471,1.09,0.705,1.861,0.705c0.868,0,1.482-0.259,1.844-0.777c0.361-0.518,0.542-1.175,0.542-1.97
			c0-1.277-0.289-2.325-0.867-3.145c-0.578-0.819-1.35-1.639-2.313-2.458l-3.688-3.253c-1.036-0.892-1.861-1.886-2.476-2.982
			c-0.615-1.096-0.922-2.452-0.922-4.067c0-2.313,0.674-4.097,2.024-5.35c1.349-1.252,3.192-1.879,5.53-1.879
			c1.374,0,2.518,0.211,3.435,0.632c0.915,0.422,1.645,1.007,2.186,1.753c0.543,0.747,0.946,1.597,1.211,2.548
			c0.266,0.952,0.435,1.958,0.507,3.019l-4.556,0.795c-0.048-0.915-0.15-1.735-0.307-2.458c-0.157-0.723-0.434-1.289-0.832-1.699
			c-0.397-0.41-0.981-0.615-1.753-0.615c-0.795,0-1.404,0.259-1.825,0.777c-0.422,0.519-0.633,1.163-0.633,1.934
			c0,0.988,0.204,1.802,0.614,2.44c0.41,0.639,1,1.296,1.772,1.97l3.651,3.217c1.205,1.012,2.234,2.199,3.091,3.561
			c0.854,1.362,1.283,3.007,1.283,4.935c0,1.397-0.308,2.639-0.922,3.724c-0.614,1.084-1.471,1.934-2.566,2.548
			C313.755,69.853,312.472,70.16,311.002,70.16z"/>
		<path style="fill:#92E3A9;" d="M321.196,69.762V40.481h5.35V53.35l5.784-12.869h5.098l-5.604,13.086l6.182,16.195h-5.314
			l-4.916-13.339l-1.229,2.241v11.098H321.196z"/>
	</g>
	<g style="opacity:0.28;">
		<path d="M269.884,130.118l0.322-18.654h3.523l2.648,12.92l2.764-12.92h3.408l0.346,18.654h-2.533l-0.276-12.966l-2.648,12.966
			h-2.05l-2.694-13.012l-0.254,13.012H269.884z"/>
		<path d="M285.521,130.118v-18.654h7.83v2.395h-4.421v5.366h3.477v2.372h-3.477v6.172h4.468v2.349H285.521z"/>
		<path d="M295.377,130.118v-18.654h4.399c1.52,0,2.706,0.207,3.558,0.622c0.852,0.415,1.458,1.052,1.819,1.911
			c0.36,0.86,0.541,1.95,0.541,3.271v6.817c0,1.351-0.181,2.476-0.541,3.373c-0.361,0.899-0.96,1.567-1.796,2.004
			c-0.837,0.438-1.985,0.656-3.443,0.656H295.377z M298.786,127.746h1.036c0.783,0,1.343-0.138,1.681-0.414
			c0.338-0.276,0.545-0.679,0.622-1.209c0.076-0.53,0.115-1.178,0.115-1.946v-7.139c0-0.752-0.054-1.359-0.161-1.819
			c-0.107-0.46-0.33-0.798-0.668-1.013c-0.338-0.215-0.883-0.322-1.635-0.322h-0.99V127.746z"/>
		<path d="M308.297,130.118v-18.654h3.362v18.654H308.297z"/>
		<path d="M319.65,130.372c-1.382,0-2.456-0.253-3.224-0.76c-0.769-0.506-1.298-1.228-1.59-2.165
			c-0.291-0.937-0.438-2.057-0.438-3.362v-12.621h3.316v13.012c0,0.583,0.038,1.132,0.115,1.646
			c0.077,0.515,0.257,0.929,0.541,1.244c0.284,0.315,0.71,0.472,1.278,0.472c0.599,0,1.032-0.157,1.302-0.472
			c0.267-0.314,0.444-0.729,0.529-1.244c0.084-0.514,0.127-1.063,0.127-1.646v-13.012h3.293v12.621c0,1.305-0.146,2.426-0.438,3.362
			c-0.292,0.937-0.817,1.658-1.578,2.165C322.126,130.118,321.048,130.372,319.65,130.372z"/>
		<path d="M327.526,130.118l0.322-18.654h3.523l2.648,12.92l2.764-12.92h3.409l0.345,18.654h-2.533l-0.276-12.966l-2.648,12.966
			h-2.05l-2.694-13.012l-0.253,13.012H327.526z"/>
	</g>
</g>
<g id="Magnetism">
	<g>
		<path style="fill:none;stroke:#92E3A9;stroke-linecap:round;stroke-linejoin:round;stroke-miterlimit:10;" d="M174.578,230.63
			c5.209-6.425,9.87-2.647,15.079-9.072c5.211-6.428,0.55-10.206,5.761-16.634c5.211-6.428,9.872-2.649,15.083-9.077
			c5.212-6.429,0.551-10.207,5.763-16.636c5.212-6.429,9.873-2.65,15.084-9.079"/>
		<path style="fill:none;stroke:#92E3A9;stroke-linecap:round;stroke-linejoin:round;stroke-miterlimit:10;" d="M185.473,239.462
			c5.209-6.425,9.87-2.647,15.079-9.072c5.211-6.428,0.55-10.206,5.761-16.634c5.211-6.428,9.872-2.649,15.083-9.077
			c5.212-6.429,0.551-10.207,5.763-16.636c5.212-6.429,9.873-2.65,15.084-9.079"/>
		<path style="fill:none;stroke:#92E3A9;stroke-linecap:round;stroke-linejoin:round;stroke-miterlimit:10;" d="M196.367,248.294
			c5.209-6.425,9.87-2.647,15.079-9.072c5.211-6.428,0.55-10.206,5.761-16.634c5.211-6.428,9.872-2.649,15.083-9.077
			c5.212-6.429,0.551-10.207,5.763-16.636c5.212-6.429,9.873-2.65,15.084-9.079"/>
		<path style="fill:none;stroke:#92E3A9;stroke-linecap:round;stroke-linejoin:round;stroke-miterlimit:10;" d="M207.261,257.126
			c5.209-6.425,9.87-2.647,15.079-9.072c5.211-6.428,0.55-10.206,5.761-16.634c5.211-6.428,9.872-2.65,15.083-9.077
			c5.212-6.429,0.551-10.207,5.763-16.636c5.212-6.429,9.873-2.65,15.084-9.079"/>
	</g>
</g>
<g id="Floor">
	
		<line style="fill:none;stroke:#263238;stroke-linecap:round;stroke-linejoin:round;stroke-miterlimit:10;" x1="31.973" y1="471.015" x2="470.367" y2="471.015"/>
</g>
<g id="Character_1_">
	<g>
		<path style="fill:#FFFFFF;stroke:#263238;stroke-linejoin:round;stroke-miterlimit:10;" d="M53.676,448.121
			c0,0-1.146,16.997,0.191,20.435c1.337,3.438,6.111,8.785,8.976,7.639c2.865-1.146,2.101-7.83,2.101-12.414
			c0-4.583,1.146-11.459,1.146-12.605S53.676,448.121,53.676,448.121z"/>
		<path style="fill:#FFFFFF;stroke:#263238;stroke-linejoin:round;stroke-miterlimit:10;" d="M141.718,459.58
			c0,0-0.382,11.65,1.719,12.414c2.101,0.764,14.133-0.573,16.233-0.191c2.101,0.382,8.785,0.764,11.268,0
			c2.483-0.764,5.729-2.101,4.775-4.011c-0.955-1.91-13.178-7.066-15.852-8.785c-2.674-1.719-7.448-4.966-7.448-4.966
			L141.718,459.58z"/>
		<path style="fill:#263238;stroke:#263238;stroke-linejoin:round;stroke-miterlimit:10;" d="M78.885,317.871
			c0,0-0.955,6.684-1.337,18.334c-0.382,11.65,3.629,35.905,3.629,35.905l-4.965,28.265l-19.098,43.544c0,0-4.583,1.146-3.438,4.202
			c1.146,3.056,5.157,6.302,7.448,6.302c2.292,0,5.348-0.955,6.302-2.483c0.955-1.528,1.337-5.348,1.337-5.348
			s33.231-44.308,33.804-45.836c0.573-1.528,5.92-25.019,5.92-25.019l13.751,18.525l19.098,57.104c0,0-1.337,1.719-0.573,4.202
			c0.764,2.483,2.101,5.92,2.101,5.92s1.91,0,5.156-1.146c3.247-1.146,6.493-4.011,6.493-4.011s0.764-1.528,0.382-3.438
			c-0.382-1.91-1.528-2.674-1.337-4.202c0.191-1.528-6.684-55.958-7.83-59.586c-1.146-3.629-27.501-58.249-27.501-58.249
			l-1.91-13.942C116.318,316.917,99.321,323.792,78.885,317.871z"/>
		<g>
			<g>
				<path style="fill:#FFFFFF;stroke:#263238;stroke-linecap:round;stroke-linejoin:round;stroke-miterlimit:10;" d="
					M105.627,198.948c0,0-7.536-2.939-13.647-1.377c-6.111,1.562-15.579,9.926-14.888,14.844c0.691,4.919,11.885,15.67,11.885,15.67
					l-0.429,9.824l19.531,8.431l2.781-12.551c0,0,7.174-1.833,6.902-2.896c-0.272-1.063-1.919-10.832-1.919-10.832
					s2.188-1.408,0.711-3.862c-1.476-2.453-4.649-5.938-4.649-5.938S112.888,206.193,105.627,198.948z"/>
				<path style="fill:#263238;stroke:#263238;stroke-linecap:round;stroke-linejoin:round;stroke-miterlimit:10;" d="
					M110.86,233.789c0,0-4.593,0.023-5.347-0.128c-0.755-0.151-5.434-2.868-5.434-2.868l8.452,12.226L110.86,233.789z"/>
				<path style="fill:#263238;" d="M110.768,212.772c0.481,0.753,0.62,1.524,0.31,1.722c-0.31,0.198-0.951-0.252-1.432-1.005
					c-0.481-0.753-0.62-1.524-0.31-1.722C109.646,211.57,110.287,212.019,110.768,212.772z"/>
				<path style="fill:none;stroke:#263238;stroke-linecap:round;stroke-linejoin:round;stroke-miterlimit:10;" d="M110.146,209.249
					c0,0-1.752-0.5-2.697,1.454"/>
				<path style="fill:none;stroke:#263238;stroke-linecap:round;stroke-linejoin:round;stroke-miterlimit:10;" d="M114.743,222.964
					c0,0-1.822,0.584-3.815-0.546"/>
			</g>
			<path style="fill:#263238;stroke:#263238;stroke-linecap:round;stroke-linejoin:round;stroke-miterlimit:10;" d="
				M106.923,200.678l-7.987,4.174c0,0,3.07,2.046,2.415,3.912c-0.655,1.866-0.655,1.866-0.655,1.866l0.171,7.316l-2.058,0.809
				c0,0-6.209-4.357-7.717-0.292c-1.508,4.065,3.761,6.964,3.761,6.964s-2.17,4.8-4.16,5.875c-1.99,1.075-0.877-2.323-4.806-3.3
				c-3.929-0.977-11.349-7.856-11.502-11.779c-0.153-3.924,1.795-12.913,8.425-16.872c6.631-3.959,11.216-4.848,14.941-4.668
				c3.726,0.18,7.415-1.964,8.625,0.557C107.587,197.759,106.923,200.678,106.923,200.678z"/>
		</g>
		<path style="fill:#FFFFFF;stroke:#263238;stroke-linejoin:round;stroke-miterlimit:10;" d="M87.098,237.85
			c0,0-7.257,9.74-10.122,21.772c-2.865,12.032-3.438,26.355-0.955,33.613c2.483,7.257,2.101,20.053,2.101,20.053
			s-1.91,3.629,0.191,5.92s15.469,6.493,27.119,4.775c11.65-1.719,12.032-4.583,12.605-6.493c0.573-1.91,0.382-27.883-2.101-39.533
			c-2.483-11.65-5.347-21.772-7.066-26.928C107.151,245.872,87.098,237.85,87.098,237.85z"/>
		<polygon style="fill:#FFFFFF;stroke:#263238;stroke-linejoin:round;stroke-miterlimit:10;" points="87.349,231.442 
			111.543,247.399 111.161,255.993 84.806,238.232 		"/>
		<g>
			<path style="fill:#263238;stroke:#263238;stroke-linejoin:round;stroke-miterlimit:10;" d="M211.68,265.324l-12.729-11.009
				l-4.321-2.554l-26.797,48.044c-8.309,9.797-21.545,12.226-29.562,5.426c-8.017-6.8-7.781-20.255,0.529-30.051l40.124-37.638
				l-11.853-10.439l-5.197-3.124l-41.013,43.474c-13.473,15.885-11.518,39.684,4.367,53.157s39.684,11.518,53.157-4.367
				L211.68,265.324z"/>
			<g>
				<polygon style="fill:#263238;stroke:#263238;stroke-linecap:round;stroke-linejoin:round;stroke-miterlimit:10;" points="
					198.95,254.315 194.63,251.761 180.831,276.5 192.652,286.316 196.282,288.87 211.68,265.324 				"/>
				<polygon style="fill:#263238;stroke:#263238;stroke-linecap:round;stroke-linejoin:round;stroke-miterlimit:10;" points="
					154.851,254.255 157.964,257.202 178.923,237.541 167.07,227.102 161.873,223.978 148.45,238.206 				"/>
			</g>
			<g>
				<path style="fill:#FFFFFF;stroke:#263238;stroke-linejoin:round;stroke-miterlimit:10;" d="M207.892,263.009l-13.263-11.249
					l-30.585,45.729c-8.309,9.797-21.545,12.226-29.562,5.426c-8.017-6.8-7.781-20.254,0.529-30.051l40.124-37.638l-13.263-11.249
					l-44.8,41.159c-13.473,15.885-11.518,39.684,4.367,53.157c15.885,13.473,39.684,11.518,53.157-4.367L207.892,263.009z"/>
				<polygon style="fill:#92E3A9;stroke:#263238;stroke-linejoin:round;stroke-miterlimit:10;" points="192.652,286.316 
					207.892,263.009 194.63,251.761 179.167,274.879 				"/>
				<polygon style="fill:#92E3A9;stroke:#263238;stroke-linejoin:round;stroke-miterlimit:10;" points="154.851,254.255 
					175.136,235.227 161.873,223.978 141.367,242.818 				"/>
			</g>
		</g>
		<g>
			<path style="fill:#FFFFFF;stroke:#263238;stroke-linejoin:round;stroke-miterlimit:10;" d="M109.061,300.492l41.443,20.626
				c0,0,3.247-2.674,4.774-4.584c1.528-1.91,2.865-2.483,4.584-2.674s2.865,0.573,4.965-1.146s2.483-1.337,1.719,0.573
				c-0.764,1.91-0.955,2.674-2.674,2.865c-1.719,0.191-2.865,0.955-2.865,0.955s4.965,3.056,6.111,3.629
				c1.146,0.573,2.101,1.528,1.719,2.101c-0.382,0.573,0,1.528-1.146,1.528c-1.146,0-2.483,0-2.483,0s-1.528,1.337-3.056,3.247
				c-1.528,1.91-3.056,2.865-4.775,3.056c-1.719,0.191-6.302,0-10.313-1.146c-4.011-1.146-37.241-11.459-41.634-13.178
				c-4.393-1.719-9.931-5.729-9.931-5.729L109.061,300.492z"/>
			<path style="fill:#FFFFFF;stroke:#263238;stroke-linejoin:round;stroke-miterlimit:10;" d="M83.278,253.702
				c0,0-5.538,4.393-4.965,10.122c0.573,5.729,11.077,44.308,11.077,44.308l18.907-11.65c0,0-5.921-32.276-9.358-37.814
				c-3.438-5.538-7.448-6.493-7.448-6.493"/>
			<path style="fill:#FFFFFF;stroke:#263238;stroke-linejoin:round;stroke-miterlimit:10;" d="M108.297,291.134l-22.345,13.942
				c0,0,2.292,8.021,4.011,9.358c1.719,1.337,1.719,1.337,1.719,1.337s18.334-12.605,19.48-14.324
				C112.307,299.728,108.87,292.089,108.297,291.134z"/>
		</g>
		<g>
			<path style="fill:#FFFFFF;stroke:#263238;stroke-linejoin:round;stroke-miterlimit:10;" d="M149.982,266.377l-0.367,0.319
				c-0.575,0.501-1.447,0.44-1.947-0.134l-3.079-3.535c-0.501-0.575-0.44-1.447,0.134-1.947l0.367-0.319
				c0.575-0.501,1.447-0.441,1.947,0.134l3.079,3.535C150.617,265.004,150.557,265.876,149.982,266.377z"/>
			<path style="fill:#FFFFFF;stroke:#263238;stroke-linejoin:round;stroke-miterlimit:10;" d="M147.249,268.601l-0.367,0.319
				c-0.575,0.501-1.447,0.44-1.947-0.134l-2.328-2.673c-0.501-0.575-0.44-1.447,0.134-1.947l0.367-0.319
				c0.575-0.501,1.447-0.441,1.947,0.134l2.328,2.673C147.884,267.229,147.824,268.1,147.249,268.601z"/>
			<path style="fill:#FFFFFF;stroke:#263238;stroke-linejoin:round;stroke-miterlimit:10;" d="M144.674,271.176l-0.367,0.319
				c-0.575,0.501-1.447,0.44-1.947-0.134l-2.328-2.673c-0.501-0.575-0.441-1.447,0.134-1.947l0.367-0.319
				c0.575-0.501,1.447-0.441,1.947,0.134l2.328,2.673C145.309,269.803,145.249,270.675,144.674,271.176z"/>
			<path style="fill:#FFFFFF;stroke:#263238;stroke-linejoin:round;stroke-miterlimit:10;" d="M141.609,272.849l-0.367,0.319
				c-0.575,0.501-1.447,0.441-1.947-0.134l-1.814-2.083c-0.501-0.575-0.44-1.447,0.134-1.947l0.367-0.319
				c0.575-0.501,1.447-0.44,1.947,0.134l1.814,2.082C142.244,271.477,142.184,272.348,141.609,272.849z"/>
		</g>
	</g>
</g>
</svg>
